<?xml version="1.0" encoding="UTF-8"?>
<svg id="Calque_2" data-name="Calque 2" xmlns="http://www.w3.org/2000/svg" viewBox="0 0 32.68 28.17">
  <defs>
    <style>
      .cls-1 {
        fill: #b3b3b3;
        stroke: #fff;
        stroke-miterlimit: 3.97;
        stroke-width: .3px;
      }
    </style>
  </defs>
  <g id="svg2">
    <g id="fx">
      <path id="path2166" class="cls-1" d="M3.79,10.88c-.11-.11-.23-.21-.36-.29.03.19.16.32.36.29"/>
      <path id="path2168" class="cls-1" d="M5.87,11.97c-.07-.15-.06-.21-.27-.17.09.06.18.11.27.17"/>
      <path id="path2172" class="cls-1" d="M7.71,14.1c-.09-.19-.35-.15-.51-.12.18,0,.35.05.51.12"/>
      <path id="path2174" class="cls-1" d="M7.81,15.1c.17-.24-.02-.64-.34-.48.15.13.27.29.34.48"/>
      <path id="path2182" class="cls-1" d="M.23,8.75c.3-.14.66-.23.99-.17.12-.51-.56-.16-.7-.51.31-.1.68-.06,1-.05-.25-.04-.59.05-.41-.27-.2-.01-.85.36-.94.03-.11-.44.57-.71.89-.78.44-.09.85-.12,1.29-.11.63.02,1.03-.59,1.72-.5-.08.22.75,1.01.98.91.15-.07.31-.16.45-.26.31-.18.29.05.55.1.26.05.46-.15.48.27.17-.12-.08-.25.06-.45.14-.19.22.1.34.14.3.08.68,0,.98-.05-.63-.18-.4-1.08-.35-1.55.03-.23-.32-.45-.43-.61-.2-.27-.02-.69-.31-.91.22.04.42.15.64.19.24.05.54-.19.74-.08.33.17-.08.66.37.92.13.07.36-.06.5-.06.39,0,.77.13,1.15.21.37.07.7.06,1.04-.13.3-.18.71-.17.98-.36-.22.09-.58.13-.8.01-.43-.25.56-.85.72-.93.52-.24,1.11-.21,1.64-.42.31-.12.72-.83,1.1-.63-.33-.22-.13-1.71.15-1.98.27-.28,1.66-.77,2.02-.47.18.15-.17.74.36.88.55.13.42.01.81.13.36.11.25.39.53.52.36.18.73-.03.69.53.22-.14.6-.11.83-.03.43.15.25.69.17,1,.29.05.62.14.91.02.29-.11.35-.44.64-.56.02.18-.05.99.19,1,.36.01,1.09.49,1.2.83-.03-.1,1.37.13,1.44.13.34.03.6-.04.86.24.21.22.36.57.69.66.07-.03.12-.08.17-.15.1-.11.16.03.27.05.06.02.08.06.05.13-.02.13.29.06.34.06.34.03.54-.18.86.06.34.26,1.04.31,1.46.38-.52.46-1,.96-1.17,1.65-.08.33-.28.64-.33.97-.03.22.04.31-.05.59-.11.34.15.62-.08.83-.19.18-.34.35-.63.32-.24-.02-.26-.38-.56-.22-.21.12-.23.49.12.44-.27.28-.5.61-.8.85-.19.12-.37.25-.55.38-.14.13-.13.39-.25.54-.21.26-.61.38-.68.75.05.12.08.26.1.39-.05.24-.27.32-.36.53.4-.05.55-.18.65-.57.1-.38.8-.35,1.08-.27.34.1.11.65.35.92.42.47.17.65-.22.96.2.29.97.82.76,1.25-.14.28-1.2.67-1.2.72.02.33.67.62.89.81.32.28-.45.77-.34,1.13.14.44.98.94,1.43.76.57-.23.48.1.27.48-.51.9-1.49,1.36-2.36,1.95.05.08.11.16.17.24-.33.05-.6.21-.9.32-.33.11-.54-.07-.85-.04-.47.04-.76-.36-1.32-.31.23-.58-.74-.13-.75-.47.06-.1.16-.13.29-.08-.01-.19-.12-.3-.32-.29.16.25.02.29-.2.3-.36.02-.4,0-.5-.44.13.87-.09.32-.65.32-.33,0-.59-.21-.91-.22-.39-.02-.82.42-1.16.58-.27.12-1.22.47-1.16.84,0,.12-.04.23-.11.34-.15.14-.14.25.04.36.13.42.05.63.29,1.04-.23.07-.43-.05-.66-.04-.24.02-.36.21-.57.26-.51.14-.82-.39-1.31-.03-.03.03-.72-.29-.79-.35-.19-.14.25-.12-.06-.33-.18-.12-.5-.17-.65.02-.07-.43-.55-.25-.81-.46-.36-.28-1.1-.47-.98.21-.4-.06-.85-.16-1.26-.08-.23.04-.38.1-.57-.07-.34-.31-.32-.18-.67-.18-.34,0-2.01-1.1-2.18-.66-.31-.13-.09-.36-.07-.58.02-.26-.74-.14-.9-.34.96-.36,1.05-1.69,1.22-2.56.07-.34.13-.87.41-1.12.41-.36-.14-.4-.18,0-.06-.82.11-1.82.46-2.57.34.19.68.42.82.8.03.17.07.34.1.51.08.22.3.25.29.51.1-.34-.24-.6-.27-.92-.05-.49-.22-.83-.66-1.07-.19-.1-.39-.24-.54-.38-.25-.24.4-.12.53,0-.3-.15-.32-1.44-.14-1.69-.4.28-1.35-.27-1.53-.64-.17-.33-.54-.5-.61-.89-.07-.35.58-.74-.23-.77.09-.11.11-.32.23-.4.31-.21.59.15.88.19-.52-.34-.72-.23-1.26-.16-.27.04-.79-.36-.3-.42-.14-.14-.08-.23.17-.27-.38-.09-.92.22-1.23-.12.17,0,.33-.04.48-.12-.31-.21-.86-.12-.95.29-.01-.27-.31-.52-.02-.75-.12.3-.65.28-.32-.1-.67.58-1.57-.74-2.25-.02-.27-.38-.51-.61-.97-.7"/>
      <path id="path2184" class="cls-1" d="M30.24,24.9c.14-.14.17-.42.35-.51.37-.18.79-.23,1.14-.47.31-.21.09-.79.52-.76.05.74.41,1.8.23,2.52-.18.75-.56,1.47-.89,2.18-.13-.2-1.32-.63-.68-.89-.17-.04-.33-.1-.48-.19.17-.11.29-.28.27-.48-.34.08-.39-.3-.19-.48-.29-.07-.47-.45-.07-.54-.08-.11-.15-.23-.19-.36"/>
    </g>
  </g>
</svg>